# xmcd CD database file
#
# Track frame offsets:
#	150
#	19231
#	33910
#	48425
#	61925
#	77921
#	97080
#	116123
#	133308
#
# Disc length: 1955 seconds
#
# Revision: 0
# Processed by: cddbd v1.5.2PL0 Copyright (c) Steve Scherf et al.
# Submitted via: CDex 1.70beta2
#
DISCID=7c07a109
DTITLE=UC - June 2002 - Universal Country - June 2002
DYEAR=2002
DGENRE=Country
TTITLE0=Doc Walker - Rocket Girl
TTITLE1=Toby Keith - Courtesy of the Red, White and Blue
TTITLE2=Eric Heatherly - The Last Man Comitted
TTITLE3=Keven Denny - Cadallac Tears
TTITLE4=Rascal Flatts - These Days
TTITLE5=Allison Moorer Cold In California
TTITLE6=Heather Myles - Never Had A Broken Heart
TTITLE7=David Nail - Memphis
TTITLE8=Rhonda Vincent - I'm Not Over You
EXTD=YEAR: 2002
EXTT0=
EXTT1=
EXTT2=
EXTT3=
EXTT4=
EXTT5=
EXTT6=
EXTT7=
EXTT8=
PLAYORDER=
